<?xml version="1.0" encoding="utf-8"?>
<!-- Generator: Adobe Illustrator 21.0.0, SVG Export Plug-In . SVG Version: 6.00 Build 0)  -->
<svg version="1.1" id="Layer_1" xmlns="http://www.w3.org/2000/svg" xmlns:xlink="http://www.w3.org/1999/xlink" x="0px" y="0px"
	 viewBox="0 0 383 309" style="enable-background:new 0 0 383 309;" xml:space="preserve">
<style type="text/css">
	.st0{fill:#FFFFFF;}
	.st1{fill:none;stroke:#FFFFFF;stroke-width:1.8701;stroke-linecap:round;stroke-linejoin:round;stroke-miterlimit:10;}
	.st2{fill:none;stroke:#FFFFFF;stroke-width:1.8701;stroke-miterlimit:10;}
</style>
<g>
	<g>
		<path class="st0" d="M33,143.6l14-0.1c11-0.1,16.2,5.2,16.3,14c0,7.2-3.4,11.5-10.2,13.4l0,0.3l13.8,23.1l-5.6,0l-13.1-22.2
			l-10.4,0l0.1,22.3l-4.7,0L33,143.6z M47,168.2c8.3,0,11.2-4,11.1-10.6c0-6.4-3.2-9.9-11.3-9.9l-9,0l0.1,20.5L47,168.2z"/>
		<path class="st0" d="M72,176.1l0-0.9c-0.1-13,7.3-18.9,15.8-19c9.9,0,14.5,6,14.6,17.4l0,2.7l-25.6,0.1
			c0.2,10.2,4.7,14.4,13.2,14.4c4.9,0,8.3-1.2,11.3-2.8l0,3.6c-2.2,1.5-6.3,3.2-12,3.2C77.8,194.9,72,188,72,176.1z M76.8,172.6
			l20.7-0.1c0-8.6-3.2-12.5-9.8-12.5C82.4,160.1,77.4,163.4,76.8,172.6z"/>
		<path class="st0" d="M108.5,192l0-3.8c3,1.3,5.9,2.4,11.1,2.4c6.2,0,8.6-2.5,8.6-6.3c0-3.9-1.9-5.5-6.8-6.9l-3.7-1.1
			c-5.5-1.4-8.9-3.9-8.9-10.1c0-6,3.9-10.2,12.2-10.2c4.7,0,7.8,1.1,9.8,2.2l0,3.9c-2.1-1.1-5.7-2-9.6-2c-5.3,0-8,2.1-8,5.8
			c0,3.6,1.7,5.1,6,6.3l3.9,1c6.7,1.9,9.8,4.2,9.8,10.7c0,6.6-4.5,10.6-12.7,10.7C115.3,194.7,111.3,193.6,108.5,192z"/>
		<path class="st0" d="M143.4,185.9l-0.1-25.3l-5.3,0l0-4l5.3,0l0-8.9l4.7,0l0,8.9l9.7,0l0,4l-9.7,0l0.1,24.6c0,3.7,1.2,5.3,5.7,5.3
			c1.6,0,3.4-0.3,4.7-0.8l0,3.2c-1.3,0.8-3,1.5-5.9,1.5C146.9,194.4,143.4,191.9,143.4,185.9z"/>
		<path class="st0" d="M164,184.2c0-6.5,3.9-10,10.9-10.8l10.4-1.3l0-4.4c0-6.1-2.7-7.9-9.2-7.8c-3.6,0-6.5,0.7-9,1.3l0-3.4
			c3.2-1.3,6.7-2,10.7-2c7.8,0,12.2,3.2,12.2,10.8l0.1,27.2l-3.8,0l-0.5-3.3l-0.3,0c-1.8,2.1-5.1,4-10.2,4
			C168.7,194.5,164,190.9,164,184.2z M185.3,187.6l-0.1-12l-9.1,1.1c-5,0.6-7.4,2.7-7.4,7.2c0,4.3,3,6.7,7.7,6.6
			C180.2,190.6,183.6,189.2,185.3,187.6z"/>
		<path class="st0" d="M200.4,183.6l-0.1-27.4l4.7,0l0.1,26.8c0,5.2,2.2,7.2,7.8,7.2c3.9,0,7.7-1.4,10.9-3.4l-0.1-30.6l4.6,0
			l0.2,37.5l-4,0l-0.5-3.5l-0.2,0c-3.6,2.4-7.8,4.1-12.2,4.2C204.5,194.3,200.4,190.8,200.4,183.6z"/>
		<path class="st0" d="M239.1,156.1l4.4,0l0,4.3l0.3,0c2.1-2.4,6.2-4.8,10.5-4.8c0.8,0,1.8,0.1,2.2,0.2l0,4.4
			c-0.9-0.1-1.9-0.2-2.6-0.2c-3.8,0-7.6,1.6-10.2,3.8l0.1,29.7l-4.7,0L239.1,156.1z"/>
		<path class="st0" d="M260.8,183.7c0-6.5,3.9-10,10.9-10.8l10.4-1.3l0-4.4c0-6.1-2.7-7.9-9.2-7.8c-3.6,0-6.5,0.7-9,1.3l0-3.4
			c3.2-1.3,6.7-2,10.7-2c7.8,0,12.2,3.2,12.2,10.8l0.1,27.2l-3.8,0l-0.5-3.3l-0.3,0c-1.8,2.1-5.1,4-10.2,4
			C265.5,194,260.8,190.4,260.8,183.7z M282.1,187.2l-0.1-12l-9.1,1.1c-5,0.6-7.4,2.7-7.4,7.2c0,4.3,3,6.7,7.7,6.6
			C277,190.2,280.4,188.8,282.1,187.2z"/>
		<path class="st0" d="M297.3,155.8l4.4,0l0,3.3l0.3,0c3.6-2.4,8.5-4.1,13.1-4.1c7,0,10.5,2.8,10.6,10l0.1,28.1l-4.7,0l-0.1-27
			c0-5-2-7-7.9-6.9c-3.8,0-7.9,1.3-11.2,3.2l0.1,30.8l-4.7,0L297.3,155.8z"/>
		<path class="st0" d="M338.5,184.9l-0.1-25.3l-5.3,0l0-4l5.3,0l0-8.9l4.7,0l0,8.9l9.7,0l0,4l-9.7,0l0.1,24.6c0,3.7,1.2,5.3,5.7,5.3
			c1.6,0,3.4-0.3,4.7-0.8l0,3.2c-1.3,0.8-3,1.5-5.9,1.5C342,193.4,338.6,191,338.5,184.9z"/>
	</g>
	<g>
		<path class="st0" d="M74.4,212.5c0.2,0.1,0.4,0.2,0.5,0.3c0.1,0.1,0.2,0.3,0.1,0.5c0,0.2-0.1,0.3-0.2,0.5
			c-0.1,0.1-0.3,0.2-0.6,0.3l-2.9,0l0,9c0,0.3-0.1,0.5-0.2,0.6c-0.2,0.1-0.3,0.2-0.5,0.2c-0.2,0-0.3-0.1-0.5-0.2
			c-0.1-0.1-0.2-0.3-0.3-0.6l0-9.1l-2.9,0c-0.3,0-0.5-0.1-0.6-0.3s-0.2-0.3-0.2-0.5c0-0.2,0.1-0.4,0.2-0.5c0.1-0.1,0.4-0.2,0.6-0.2
			c0.1,0,0.4,0,0.8,0c0.4,0,0.8,0,1.3,0s1,0,1.6,0s1.1,0,1.6,0c0.5,0,0.9,0,1.3,0C74,212.5,74.2,212.5,74.4,212.5z"/>
		<path class="st0" d="M83.9,223.6c-0.2,0.1-0.3,0.2-0.5,0.2c-0.2,0-0.3-0.1-0.5-0.2s-0.2-0.3-0.3-0.6l0-8.8c-0.2,0-0.4-0.1-0.5-0.2
			c-0.1-0.1-0.2-0.3-0.2-0.5c0-0.1,0-0.2,0.1-0.4c0.1-0.1,0.1-0.2,0.3-0.3c0.5-0.3,1.1-0.6,1.8-0.8c0.7-0.2,1.3-0.3,2-0.3
			c0.5,0,1.1,0.1,1.6,0.2c0.5,0.1,1,0.4,1.4,0.7c0.5,0.4,0.9,0.8,1.1,1.3c0.2,0.5,0.3,0.9,0.3,1.4c0,0.4-0.1,0.8-0.2,1.2
			c-0.1,0.4-0.3,0.7-0.5,1.1c-0.2,0.3-0.5,0.6-0.8,0.9c-0.3,0.3-0.7,0.5-1.1,0.7c0.5,0.5,1,1.1,1.5,1.7c0.5,0.6,1.1,1.1,1.5,1.7
			c0.1,0.2,0.2,0.4,0.2,0.6c0,0.2-0.1,0.4-0.2,0.5c-0.1,0.1-0.3,0.2-0.5,0.2c-0.1,0-0.2,0-0.3-0.1c-0.1,0-0.2-0.1-0.3-0.2
			c-0.1-0.1-0.2-0.2-0.4-0.4c-0.2-0.2-0.4-0.4-0.6-0.7s-0.5-0.5-0.7-0.8c-0.3-0.3-0.5-0.6-0.7-0.8c-0.2-0.3-0.4-0.5-0.6-0.7
			c-0.2-0.2-0.3-0.3-0.4-0.4c-0.3,0.1-0.7,0.1-1,0.1c-0.3,0-0.7,0-1,0.1l0,3.1C84.1,223.3,84,223.5,83.9,223.6z M88,213.8
			c-0.3-0.2-0.6-0.4-1-0.4c-0.4-0.1-0.7-0.1-1.1-0.1c-0.3,0-0.6,0-0.9,0.1c-0.3,0.1-0.6,0.1-0.9,0.3l0,4.8c0.5,0,0.9-0.1,1.4-0.1
			s0.9-0.2,1.4-0.3c0.3-0.1,0.5-0.2,0.8-0.4c0.2-0.2,0.5-0.4,0.6-0.6c0.2-0.2,0.3-0.5,0.4-0.8c0.1-0.3,0.2-0.5,0.2-0.8
			c0-0.3-0.1-0.6-0.2-0.8C88.5,214.3,88.3,214,88,213.8z"/>
		<path class="st0" d="M108,222.9c0,0.2-0.1,0.4-0.2,0.6s-0.2,0.2-0.4,0.3c-0.2,0-0.3,0-0.5-0.1c-0.2-0.1-0.3-0.2-0.4-0.4
			c-0.1-0.6-0.2-1.1-0.3-1.7s-0.3-1.1-0.5-1.7l-4.9,0c0,0-0.1,0-0.1,0c0,0-0.1,0-0.1,0c-0.3,1-0.6,2.1-0.8,3.3
			c-0.1,0.3-0.2,0.4-0.4,0.5c-0.2,0.1-0.4,0.1-0.5,0.1c-0.2,0-0.3-0.2-0.4-0.3c-0.1-0.2-0.1-0.4-0.1-0.7c0.4-1.8,0.9-3.5,1.5-5.2
			c0.6-1.7,1.3-3.4,2.1-5c0.1-0.2,0.2-0.4,0.5-0.4c0.1,0,0.3-0.1,0.4,0c0.1,0,0.2,0.1,0.3,0.2c0,0,0,0,0,0c0,0,0,0,0,0
			c0.6,0.6,1.2,1.3,1.6,2.1c0.4,0.8,0.8,1.6,1.2,2.4c0.1,0.3,0.3,0.6,0.4,0.9c0.1,0.3,0.2,0.6,0.3,0.8l1,0c0.2,0.1,0.4,0.2,0.5,0.3
			c0.1,0.1,0.2,0.3,0.2,0.5c0,0.2-0.1,0.3-0.2,0.4c-0.1,0.1-0.3,0.2-0.5,0.3l-0.4,0c0.2,0.5,0.3,1,0.4,1.5
			C107.8,221.8,107.9,222.3,108,222.9z M102.9,214c-0.3,0.7-0.7,1.4-0.9,2.1c-0.3,0.7-0.6,1.5-0.8,2.2l4,0c-0.2-0.4-0.3-0.7-0.5-1.1
			c-0.2-0.4-0.3-0.7-0.5-1.1c-0.2-0.4-0.4-0.7-0.6-1.1C103.4,214.7,103.1,214.3,102.9,214z"/>
		<path class="st0" d="M117.1,223.8c-0.2,0-0.3-0.1-0.5-0.2c-0.1-0.1-0.2-0.2-0.3-0.3l-0.1-0.1c0-0.1,0-0.1-0.1-0.2s0-0.1,0-0.2
			l0-8.3c-0.1,0-0.2,0.1-0.3,0.1c-0.1,0-0.2,0-0.3,0c-0.2,0-0.4-0.1-0.6-0.2c-0.1-0.1-0.2-0.3-0.2-0.5c0-0.3,0.2-0.5,0.5-0.7
			c0.3-0.2,0.7-0.4,1.1-0.5c0.4-0.1,0.9-0.2,1.4-0.3c0.5-0.1,0.9-0.1,1.2-0.1c0.9,0,1.7,0.1,2.4,0.4c0.7,0.3,1.3,0.7,1.8,1.2
			c0.5,0.5,0.8,1.1,1.1,1.7c0.3,0.7,0.4,1.4,0.4,2.1c0,0.7-0.1,1.5-0.4,2.2c-0.3,0.7-0.7,1.3-1.2,1.9c-0.4,0.4-0.8,0.7-1.3,0.9
			s-1,0.4-1.5,0.5c-0.5,0.1-1,0.2-1.6,0.3C118.1,223.7,117.6,223.7,117.1,223.8z M119,214c-0.2,0-0.4,0-0.6,0
			c-0.2,0-0.4,0.1-0.6,0.1l0,8.1c0.4,0,0.7-0.1,1.1-0.1c0.4,0,0.8-0.1,1.2-0.2s0.7-0.2,1.1-0.4c0.3-0.2,0.6-0.4,0.8-0.6
			c0.4-0.4,0.7-0.9,0.9-1.5c0.2-0.5,0.3-1.1,0.3-1.7c0-0.5-0.1-1-0.3-1.4c-0.2-0.5-0.4-0.9-0.8-1.2c-0.4-0.4-0.8-0.6-1.3-0.8
			C120.2,214.1,119.6,214,119,214z"/>
		<path class="st0" d="M136.8,221.8c0.3,0,0.5,0,0.6,0.2c0.2,0.1,0.2,0.3,0.3,0.5c0,0.2,0,0.3-0.1,0.5s-0.3,0.3-0.6,0.3
			c-0.6,0-1.3,0-1.9,0c-0.6,0-1.3,0-1.9,0c-0.3,0-0.5-0.1-0.6-0.3c-0.1-0.2-0.2-0.3-0.2-0.5c0-0.2,0.1-0.3,0.2-0.5
			c0.1-0.1,0.3-0.2,0.6-0.2c0.2,0,0.4,0,0.5,0c0.2,0,0.4,0,0.5,0l0-8.1l-1.2,0c-0.3,0-0.5-0.1-0.6-0.3c-0.1-0.2-0.2-0.3-0.2-0.5
			c0-0.2,0.1-0.3,0.2-0.5c0.1-0.1,0.3-0.2,0.6-0.2l3.8,0c0.2,0.1,0.4,0.2,0.5,0.3c0.1,0.1,0.2,0.3,0.2,0.5c0,0.2-0.1,0.3-0.2,0.4
			c-0.1,0.1-0.3,0.2-0.5,0.3l-1.1,0l0,8.1c0.2,0,0.3,0,0.5,0S136.7,221.8,136.8,221.8z"/>
		<path class="st0" d="M152.6,220.4c0.2-0.2,0.4-0.2,0.6-0.2c0.2,0,0.4,0.1,0.5,0.2c0.1,0.1,0.2,0.3,0.2,0.5c0,0.1,0,0.2-0.1,0.4
			c-0.2,0.3-0.4,0.6-0.7,0.9c-0.3,0.3-0.5,0.6-0.8,0.8s-0.6,0.4-1,0.6c-0.4,0.1-0.8,0.2-1.2,0.2c-0.7,0-1.3-0.1-1.8-0.4
			s-1-0.6-1.4-1.1c-0.4-0.5-0.7-1-0.9-1.7c-0.2-0.6-0.3-1.3-0.3-2c0-0.5,0.1-1,0.2-1.4c0.2-0.6,0.4-1.1,0.6-1.6
			c0.2-0.4,0.5-0.8,0.9-1.2c0.3-0.3,0.7-0.6,1.2-0.9c0.4-0.3,0.9-0.5,1.5-0.8c0.4-0.2,0.7-0.3,1-0.4c0.3-0.1,0.6-0.1,0.9-0.1
			c0.4,0,0.8,0.1,1.2,0.4c0.3,0.2,0.7,0.7,1,1.3c0,0.1,0.1,0.2,0.1,0.3c0,0.2-0.1,0.4-0.2,0.5c-0.1,0.1-0.3,0.2-0.5,0.2
			c-0.2,0-0.5-0.1-0.6-0.3c-0.2-0.3-0.3-0.6-0.5-0.7c-0.1-0.1-0.3-0.2-0.5-0.2c-0.1,0-0.3,0-0.5,0.1c-0.2,0.1-0.4,0.2-0.7,0.3
			c-0.5,0.2-0.9,0.4-1.3,0.7c-0.4,0.3-0.8,0.6-1.1,1c-0.3,0.4-0.6,0.8-0.8,1.3c-0.2,0.5-0.3,1.1-0.3,1.7c0,0.4,0.1,0.9,0.2,1.3
			c0.1,0.4,0.3,0.8,0.6,1.1c0.3,0.3,0.6,0.6,0.9,0.8c0.4,0.2,0.8,0.3,1.3,0.3c0.3,0,0.5-0.1,0.8-0.2c0.2-0.1,0.5-0.3,0.7-0.4
			c0.2-0.2,0.4-0.4,0.6-0.6C152.3,220.8,152.5,220.6,152.6,220.4z"/>
		<path class="st0" d="M166.1,221.8c0.3,0,0.5,0,0.6,0.2c0.2,0.1,0.2,0.3,0.3,0.5c0,0.2,0,0.3-0.1,0.5c-0.1,0.2-0.3,0.3-0.6,0.3
			c-0.6,0-1.3,0-1.9,0c-0.6,0-1.3,0-1.9,0c-0.3,0-0.5-0.1-0.6-0.3c-0.1-0.2-0.2-0.3-0.2-0.5c0-0.2,0.1-0.3,0.2-0.5s0.3-0.2,0.6-0.2
			c0.2,0,0.4,0,0.5,0s0.4,0,0.5,0l0-8.1l-1.2,0c-0.3,0-0.5-0.1-0.6-0.3c-0.1-0.2-0.2-0.3-0.2-0.5c0-0.2,0.1-0.3,0.2-0.5
			c0.1-0.1,0.3-0.2,0.6-0.2l3.8,0c0.2,0.1,0.4,0.2,0.5,0.3c0.1,0.1,0.2,0.3,0.2,0.5c0,0.2-0.1,0.3-0.2,0.4c-0.1,0.1-0.3,0.2-0.5,0.3
			l-1.1,0l0,8.1c0.2,0,0.3,0,0.5,0C165.8,221.8,166,221.8,166.1,221.8z"/>
		<path class="st0" d="M185.1,218.5c-0.1,0.4-0.3,0.9-0.5,1.4c-0.2,0.5-0.4,0.9-0.7,1.4c-0.3,0.4-0.6,0.8-1,1.2s-0.8,0.6-1.2,0.8
			c-0.2,0.1-0.4,0.1-0.5,0.2c-0.1,0.1-0.3,0.1-0.4,0.1c-0.1,0-0.3,0.1-0.5,0.1c-0.2,0-0.4,0.1-0.6,0.1c0,0-0.1,0-0.1,0
			c0,0-0.1,0-0.1,0c-0.3,0-0.6-0.1-1-0.2s-0.6-0.2-0.9-0.3c-0.5-0.2-0.9-0.4-1.3-0.8c-0.3-0.3-0.6-0.7-0.8-1.2
			c-0.2-0.4-0.4-0.9-0.5-1.4c-0.1-0.5-0.1-1-0.1-1.5c0-0.2,0-0.4,0-0.5s0-0.4,0.1-0.5c0.1-0.4,0.2-0.8,0.3-1.3
			c0.2-0.5,0.3-0.9,0.6-1.3s0.5-0.8,0.8-1.2c0.3-0.4,0.6-0.7,1-0.9c0.4-0.3,0.9-0.5,1.4-0.6s1-0.2,1.5-0.2c0.8,0,1.6,0.2,2.4,0.6
			c0.7,0.4,1.3,1,1.8,1.8c0.2,0.4,0.4,0.8,0.4,1.2c0.1,0.4,0.1,0.9,0.1,1.3c0,0.3,0,0.6,0,0.9C185.2,217.9,185.2,218.2,185.1,218.5z
			 M183.6,218.3c0-0.2,0.1-0.5,0.1-0.8c0-0.3,0-0.5,0-0.8c0-0.3,0-0.6-0.1-1c-0.1-0.3-0.2-0.6-0.3-0.9c-0.3-0.5-0.7-0.9-1.2-1.2
			c-0.5-0.3-1.1-0.4-1.7-0.4c-0.7,0-1.3,0.2-1.9,0.6c-0.3,0.3-0.6,0.6-0.9,0.9c-0.3,0.4-0.5,0.8-0.7,1.2c-0.2,0.4-0.3,0.8-0.4,1.3
			s-0.1,0.9-0.1,1.2c0,0.5,0.1,1,0.2,1.4s0.3,0.8,0.6,1.2c0.3,0.3,0.6,0.6,1,0.8c0.4,0.2,0.9,0.3,1.5,0.3c0.2,0,0.5,0,0.7-0.1
			c0.2-0.1,0.5-0.1,0.7-0.3c0.4-0.2,0.7-0.4,1-0.7s0.5-0.6,0.7-0.9c0.2-0.3,0.4-0.7,0.5-1.1c0.1-0.4,0.3-0.7,0.4-1.1L183.6,218.3z"
			/>
		<path class="st0" d="M200.7,212.4c0.1-0.2,0.2-0.4,0.3-0.6c0.1-0.1,0.3-0.2,0.5-0.2c0.2,0,0.3,0.1,0.5,0.2
			c0.1,0.1,0.2,0.3,0.3,0.5c0,1.8,0,3.5,0,5.1s-0.1,3.4-0.2,5.1l0,0h0c0,0.1,0,0.1,0,0.2c0,0,0,0.1,0,0.1c-0.1,0.2-0.2,0.3-0.3,0.4
			c-0.1,0.1-0.3,0.1-0.4,0.1c-0.2,0-0.4-0.1-0.6-0.3c0,0,0-0.1-0.1-0.1c0,0,0-0.1-0.1-0.1l0,0v0c-0.4-0.8-0.9-1.5-1.4-2.2
			s-1-1.4-1.4-2c-0.5-0.7-1-1.3-1.5-2c-0.5-0.6-1-1.3-1.6-2c0,0.7,0,1.3,0,1.9c0,0.6,0,1.2,0,1.8c0,0.6,0,1.3,0,2c0,0.7,0,1.4,0,2.2
			c0,0.3-0.1,0.5-0.2,0.6c-0.2,0.1-0.3,0.2-0.5,0.2c-0.2,0-0.3-0.1-0.5-0.2c-0.1-0.1-0.2-0.3-0.3-0.6c0-1.7,0-3.3,0-5.1
			c0-1.7,0-3.4,0-5.1c0-0.2,0.1-0.4,0.3-0.5c0.1-0.1,0.3-0.2,0.5-0.2c0.2,0,0.4,0.1,0.6,0.2c0.6,0.7,1.1,1.3,1.7,2
			c0.5,0.6,1.1,1.3,1.6,1.9s1,1.3,1.5,2c0.5,0.7,1,1.4,1.4,2.1c0-1.4,0.1-2.7,0.1-3.9S200.7,213.8,200.7,212.4z"/>
		<path class="st0" d="M219.4,222.6c0,0.2-0.1,0.4-0.2,0.6c-0.1,0.1-0.2,0.2-0.4,0.3c-0.2,0-0.3,0-0.5-0.1c-0.2-0.1-0.3-0.2-0.4-0.4
			c-0.1-0.6-0.2-1.1-0.3-1.7c-0.1-0.6-0.3-1.1-0.5-1.7l-4.9,0c0,0-0.1,0-0.1,0c0,0-0.1,0-0.1,0c-0.3,1-0.6,2.1-0.8,3.3
			c-0.1,0.3-0.2,0.4-0.4,0.5c-0.2,0.1-0.4,0.1-0.5,0.1c-0.2,0-0.3-0.2-0.4-0.3c-0.1-0.2-0.1-0.4-0.1-0.7c0.4-1.8,0.9-3.5,1.5-5.2
			c0.6-1.7,1.3-3.4,2.1-5c0.1-0.2,0.2-0.4,0.5-0.4c0.1,0,0.3-0.1,0.4,0c0.1,0,0.2,0.1,0.3,0.2c0,0,0,0,0,0c0,0,0,0,0,0
			c0.6,0.6,1.2,1.3,1.6,2.1c0.4,0.8,0.8,1.6,1.2,2.4c0.1,0.3,0.3,0.6,0.4,0.8c0.1,0.3,0.2,0.6,0.3,0.9l1,0c0.2,0.1,0.4,0.2,0.5,0.3
			c0.1,0.1,0.2,0.3,0.2,0.5c0,0.2-0.1,0.3-0.2,0.4c-0.1,0.1-0.3,0.2-0.5,0.3h-0.4c0.2,0.5,0.3,1,0.4,1.5S219.3,222.1,219.4,222.6z
			 M214.3,213.7c-0.3,0.7-0.7,1.4-0.9,2.1c-0.3,0.7-0.6,1.5-0.8,2.2l4,0c-0.2-0.4-0.3-0.7-0.5-1.1c-0.2-0.4-0.3-0.7-0.5-1.1
			c-0.2-0.4-0.4-0.7-0.6-1.1C214.8,214.4,214.5,214.1,214.3,213.7z"/>
		<path class="st0" d="M233.6,221.7c0.2,0.1,0.4,0.2,0.5,0.3c0.1,0.1,0.2,0.3,0.2,0.5c0,0.2-0.1,0.3-0.2,0.4
			c-0.1,0.1-0.3,0.2-0.5,0.3c-0.9,0-1.9,0-2.8,0.1s-1.9,0-2.8,0.1c-0.5,0-0.7-0.3-0.8-0.8c0-1.6,0-3.2,0-4.9c0-1.6,0-3.2,0-4.9
			c0-0.2,0.1-0.4,0.3-0.5c0.1-0.1,0.3-0.2,0.4-0.2s0.3,0,0.5,0.2c0.1,0.1,0.3,0.3,0.3,0.5c0,1.5,0,3,0,4.5c0,1.5,0,3,0,4.5
			c0.8,0,1.7,0,2.5-0.1C231.9,221.8,232.8,221.8,233.6,221.7z"/>
		<path class="st0" d="M255.5,223.3c-0.2,0.1-0.3,0.2-0.5,0.2c-0.2,0-0.3-0.1-0.5-0.2c-0.1-0.1-0.2-0.3-0.3-0.6l0-4.6
			c-0.3-0.1-0.5-0.4-0.5-0.7c0-0.1,0-0.3,0.1-0.4c0.1-0.1,0.2-0.2,0.4-0.3v-0.1c0-0.1,0-0.3,0-0.5s0-0.4,0-0.7c0-0.4,0-0.7-0.1-1
			c0-0.3-0.1-0.6-0.3-0.8c-0.1-0.2-0.1-0.3-0.1-0.5c0-0.4,0.2-0.6,0.6-0.7c0.5-0.1,0.9-0.1,1.4-0.1s0.9,0,1.4,0s0.9,0,1.4,0
			c0.5,0,0.9-0.1,1.4-0.1c0.3,0,0.5,0.1,0.7,0.2c0.2,0.1,0.2,0.3,0.2,0.5c0,0.2-0.1,0.3-0.2,0.5c-0.1,0.1-0.3,0.2-0.5,0.3
			c-0.8,0.1-1.5,0.1-2.3,0.1c-0.8,0-1.5,0-2.3,0.1c0.1,0.3,0.1,0.5,0.1,0.8c0,0.3,0,0.6,0,0.8c0,0.2,0,0.4,0,0.6c0,0.2,0,0.4,0,0.5
			l0,0.2c0.7,0,1.3,0,2.1-0.1c0.7,0,1.3-0.1,1.8-0.3c0.3,0,0.5,0.1,0.7,0.2c0.2,0.1,0.2,0.3,0.2,0.5c0,0.3-0.2,0.5-0.5,0.7
			c-0.3,0.2-0.8,0.3-1.3,0.3s-1,0.1-1.6,0.1c-0.6,0-1,0-1.4,0l0,4.4C255.8,222.9,255.7,223.1,255.5,223.3z"/>
		<path class="st0" d="M278.6,218.3c-0.1,0.4-0.3,0.9-0.5,1.4s-0.4,0.9-0.7,1.4c-0.3,0.4-0.6,0.8-1,1.2c-0.4,0.4-0.8,0.6-1.2,0.8
			c-0.2,0.1-0.4,0.1-0.5,0.2c-0.1,0.1-0.3,0.1-0.4,0.1c-0.1,0-0.3,0.1-0.5,0.1c-0.2,0-0.4,0.1-0.6,0.1c0,0-0.1,0-0.1,0s-0.1,0-0.1,0
			c-0.3,0-0.6-0.1-1-0.2c-0.3-0.1-0.6-0.2-0.9-0.3c-0.5-0.2-0.9-0.4-1.3-0.8s-0.6-0.7-0.8-1.2c-0.2-0.4-0.4-0.9-0.5-1.4
			c-0.1-0.5-0.1-1-0.1-1.5c0-0.2,0-0.4,0-0.5s0-0.4,0.1-0.5c0.1-0.4,0.2-0.8,0.3-1.3s0.3-0.9,0.6-1.3c0.2-0.4,0.5-0.8,0.8-1.2
			c0.3-0.4,0.6-0.7,1-0.9c0.4-0.3,0.9-0.5,1.4-0.6c0.5-0.1,1-0.2,1.5-0.2c0.8,0,1.6,0.2,2.4,0.6c0.7,0.4,1.3,1,1.8,1.8
			c0.2,0.4,0.4,0.8,0.4,1.2c0.1,0.4,0.1,0.9,0.1,1.3c0,0.3,0,0.6,0,0.9C278.7,217.7,278.7,218,278.6,218.3z M277.1,218.1
			c0-0.2,0.1-0.5,0.1-0.7s0-0.5,0-0.8c0-0.3,0-0.6-0.1-1c-0.1-0.3-0.2-0.6-0.3-0.9c-0.3-0.5-0.7-0.9-1.2-1.2
			c-0.5-0.3-1.1-0.4-1.7-0.4c-0.7,0-1.3,0.2-1.9,0.6c-0.3,0.3-0.6,0.6-0.9,0.9c-0.3,0.4-0.5,0.8-0.7,1.2s-0.3,0.8-0.4,1.3
			c-0.1,0.4-0.1,0.9-0.1,1.2c0,0.5,0.1,1,0.2,1.4c0.1,0.5,0.3,0.8,0.6,1.2c0.3,0.3,0.6,0.6,1,0.8c0.4,0.2,0.9,0.3,1.5,0.3
			c0.2,0,0.5,0,0.7-0.1c0.2-0.1,0.5-0.1,0.7-0.3c0.4-0.2,0.7-0.4,1-0.7c0.3-0.3,0.5-0.6,0.7-0.9c0.2-0.3,0.4-0.7,0.5-1.1
			c0.1-0.4,0.3-0.7,0.4-1.1L277.1,218.1z"/>
		<path class="st0" d="M296.8,218.3c-0.1,0.4-0.3,0.9-0.5,1.4c-0.2,0.5-0.4,0.9-0.7,1.4c-0.3,0.4-0.6,0.8-1,1.2
			c-0.4,0.4-0.8,0.6-1.2,0.8c-0.2,0.1-0.4,0.1-0.5,0.2c-0.1,0.1-0.3,0.1-0.4,0.1c-0.1,0-0.3,0.1-0.5,0.1c-0.2,0-0.4,0.1-0.6,0.1
			c0,0-0.1,0-0.1,0s-0.1,0-0.1,0c-0.3,0-0.6-0.1-1-0.2c-0.3-0.1-0.6-0.2-0.9-0.3c-0.5-0.2-0.9-0.4-1.3-0.8s-0.6-0.7-0.8-1.2
			c-0.2-0.4-0.4-0.9-0.5-1.4c-0.1-0.5-0.1-1-0.1-1.5c0-0.2,0-0.4,0-0.5s0-0.4,0.1-0.5c0.1-0.4,0.2-0.8,0.3-1.3s0.3-0.9,0.6-1.3
			c0.2-0.4,0.5-0.8,0.8-1.2c0.3-0.4,0.6-0.7,1-0.9c0.4-0.3,0.9-0.5,1.4-0.6c0.5-0.1,1-0.2,1.5-0.2c0.8,0,1.6,0.2,2.4,0.6
			c0.7,0.4,1.3,1,1.8,1.8c0.2,0.4,0.4,0.8,0.4,1.2c0.1,0.4,0.1,0.9,0.1,1.3c0,0.3,0,0.6,0,0.9C296.9,217.7,296.8,218,296.8,218.3z
			 M295.3,218.1c0-0.2,0.1-0.5,0.1-0.7s0-0.5,0-0.8c0-0.3,0-0.6-0.1-1c-0.1-0.3-0.2-0.6-0.3-0.9c-0.3-0.5-0.7-0.9-1.2-1.2
			c-0.5-0.3-1.1-0.4-1.7-0.4c-0.7,0-1.3,0.2-1.9,0.6c-0.3,0.3-0.6,0.6-0.9,0.9c-0.3,0.4-0.5,0.8-0.7,1.2c-0.2,0.4-0.3,0.8-0.4,1.3
			c-0.1,0.4-0.1,0.9-0.1,1.2c0,0.5,0.1,1,0.2,1.4c0.1,0.5,0.3,0.8,0.6,1.2c0.3,0.3,0.6,0.6,1,0.8c0.4,0.2,0.9,0.3,1.5,0.3
			c0.2,0,0.5,0,0.7-0.1c0.2-0.1,0.5-0.1,0.7-0.3c0.4-0.2,0.7-0.4,1-0.7c0.3-0.3,0.5-0.6,0.7-0.9c0.2-0.3,0.4-0.7,0.5-1.1
			c0.1-0.4,0.3-0.7,0.4-1.1L295.3,218.1z"/>
		<path class="st0" d="M306.4,223.4c-0.2,0-0.3-0.1-0.5-0.2c-0.1-0.1-0.2-0.2-0.3-0.3l-0.1-0.1c0-0.1,0-0.1-0.1-0.2
			c0-0.1,0-0.1,0-0.2l0-8.3c-0.1,0-0.2,0.1-0.3,0.1c-0.1,0-0.2,0-0.3,0c-0.2,0-0.4-0.1-0.6-0.2c-0.1-0.1-0.2-0.3-0.2-0.5
			c0-0.3,0.2-0.5,0.5-0.7c0.3-0.2,0.7-0.4,1.1-0.5c0.4-0.1,0.9-0.2,1.4-0.3c0.5-0.1,0.9-0.1,1.2-0.1c0.9,0,1.7,0.1,2.4,0.4
			c0.7,0.3,1.3,0.7,1.8,1.2c0.5,0.5,0.9,1.1,1.1,1.7c0.3,0.7,0.4,1.4,0.4,2.1c0,0.7-0.1,1.5-0.4,2.2c-0.3,0.7-0.7,1.3-1.2,1.9
			c-0.4,0.4-0.8,0.7-1.3,0.9c-0.5,0.2-1,0.4-1.5,0.5c-0.5,0.1-1,0.2-1.6,0.3S306.9,223.3,306.4,223.4z M308.2,213.6
			c-0.2,0-0.4,0-0.6,0c-0.2,0-0.4,0.1-0.6,0.1l0,8.1c0.4,0,0.7-0.1,1.1-0.1c0.4,0,0.8-0.1,1.2-0.2c0.4-0.1,0.7-0.2,1.1-0.4
			c0.3-0.2,0.6-0.4,0.8-0.6c0.4-0.4,0.7-0.9,0.9-1.5c0.2-0.5,0.3-1.1,0.3-1.7c0-0.5-0.1-1-0.3-1.4c-0.2-0.5-0.4-0.9-0.8-1.2
			c-0.4-0.4-0.8-0.6-1.3-0.8C309.5,213.7,308.9,213.5,308.2,213.6z"/>
	</g>
	<g>
		<path class="st0" d="M140.9,135.8c0.2,0,0.4,0,0.6,0.1c0.2,0.1,0.3,0.2,0.3,0.4s0,0.3,0,0.5c-0.1,0.2-0.2,0.3-0.4,0.4
			c-0.4,0.1-0.9,0.2-1.4,0.3c-0.5,0.1-1,0.1-1.5,0.1c-0.5,0-1,0-1.5,0c-0.5,0-1-0.1-1.4-0.2c-0.2-0.1-0.3-0.2-0.4-0.4
			c-0.1-0.1-0.1-0.3-0.1-0.4v0l0-8.1c-0.2,0-0.3-0.1-0.4-0.3s-0.1-0.3-0.1-0.4c0-0.1,0-0.3,0.1-0.4c0.1-0.1,0.3-0.3,0.5-0.3
			c0.5-0.1,1-0.3,1.5-0.3c0.5-0.1,1-0.1,1.5-0.1c0.5,0,1,0,1.5,0s1,0,1.5,0c0.3,0,0.5,0,0.6,0.2c0.2,0.1,0.2,0.3,0.3,0.5
			c0,0.2,0,0.3-0.1,0.5c-0.1,0.2-0.3,0.3-0.6,0.3c-0.7,0-1.5,0.1-2.4,0c-0.8,0-1.6,0-2.4,0.2l0,3.3c0.6,0,1.3,0,1.9,0
			c0.6,0,1.3-0.1,1.9-0.1c0.3,0,0.5,0,0.6,0.2c0.2,0.1,0.2,0.3,0.3,0.5c0,0.2,0,0.3-0.1,0.5s-0.3,0.3-0.6,0.3
			c-0.7,0.1-1.4,0.1-2,0.2c-0.7,0-1.4,0-2,0l0,3c0.7,0.1,1.5,0.1,2.3,0.1C139.5,136.1,140.2,136,140.9,135.8z"/>
		<path class="st0" d="M150,136.3c-0.1-0.2-0.1-0.3-0.1-0.5c0-0.2,0.1-0.4,0.2-0.5c0.1-0.1,0.3-0.2,0.5-0.2c0.2,0,0.4,0.1,0.6,0.2
			c0.2,0.2,0.5,0.5,0.7,0.6c0.3,0.2,0.6,0.3,0.9,0.4c0.3,0.1,0.6,0.2,1,0.2c0.3,0,0.6,0.1,1,0.1c0.2-0.1,0.4-0.1,0.4-0.1
			c0.1,0,0.1,0,0.2-0.1c0,0,0.1-0.1,0.2-0.1c0.1,0,0.2-0.1,0.4-0.3c0.1-0.1,0.1-0.2,0.2-0.2c0-0.1,0.1-0.2,0.2-0.2l0.2-0.5
			c0-0.1,0-0.2,0-0.2c0-0.1,0-0.2,0-0.3c0-0.1-0.1-0.2-0.1-0.2c0-0.1-0.1-0.2-0.1-0.2c-0.1-0.1-0.1-0.2-0.2-0.2
			c-0.1-0.1-0.1-0.2-0.2-0.2c-0.1-0.1-0.2-0.1-0.3-0.2c-0.1-0.1-0.2-0.1-0.4-0.2c-0.5-0.2-1-0.3-1.4-0.4c-0.4-0.1-0.8-0.2-1.2-0.3
			c-0.4-0.1-0.7-0.3-1.1-0.5c-0.3-0.2-0.7-0.6-1-1.1c-0.1-0.1-0.1-0.2-0.1-0.2c0,0,0-0.1,0-0.3c0-0.1,0-0.2,0-0.3c0-0.1,0-0.2,0-0.3
			c0-0.2,0-0.4,0.1-0.6c0-0.2,0.1-0.3,0.2-0.5c0.1-0.2,0.2-0.3,0.3-0.5c0.1-0.2,0.3-0.3,0.5-0.5c0.2-0.2,0.4-0.4,0.7-0.5
			c0.3-0.1,0.6-0.3,0.8-0.3c0.3-0.1,0.6-0.1,0.9-0.2c0.3,0,0.6,0,0.9,0c0.1,0,0.2,0,0.3,0c0.1,0,0.2,0,0.2,0c0.3,0,0.6,0.1,0.8,0.2
			c0.3,0.1,0.5,0.2,0.8,0.3c0.3,0.2,0.4,0.4,0.4,0.7c0,0.2-0.1,0.3-0.2,0.5c-0.1,0.1-0.3,0.2-0.6,0.2c0,0-0.1,0-0.1,0
			c0,0-0.1,0-0.1,0c-0.4-0.1-0.7-0.2-1-0.3c-0.3-0.1-0.6-0.1-0.9-0.1c-0.3,0-0.6,0.1-0.9,0.1c-0.3,0.1-0.7,0.3-1.1,0.5
			c-0.1,0.1-0.1,0.2-0.2,0.3c-0.1,0.1-0.1,0.2-0.2,0.2c0,0.1-0.1,0.1-0.1,0.2c0,0.1-0.1,0.1-0.1,0.2c0,0.1,0,0.1,0,0.2
			c0,0.1,0,0.1,0,0.2c0,0.1,0.1,0.1,0.1,0.2s0.1,0.1,0.1,0.2l0.8,0.4c0.4,0.1,0.7,0.2,1,0.2c0.3,0.1,0.6,0.1,0.9,0.2
			c0.3,0.1,0.6,0.2,0.9,0.3c0.3,0.1,0.6,0.3,0.9,0.4c0.2,0.1,0.3,0.2,0.4,0.4c0.1,0.2,0.2,0.3,0.4,0.4c0.2,0.2,0.3,0.5,0.4,0.8
			c0.1,0.3,0.1,0.6,0.1,0.9c0,0.4-0.1,0.9-0.3,1.3c-0.2,0.4-0.4,0.8-0.7,1c-0.1,0.1-0.2,0.2-0.3,0.3s-0.2,0.2-0.3,0.2
			c-0.3,0.2-0.5,0.3-0.9,0.4c-0.3,0.1-0.7,0.1-1,0.1c-0.4,0-0.8,0-1.2-0.1c-0.4-0.1-0.8-0.2-1.2-0.4c-0.4-0.2-0.7-0.4-1.1-0.6
			C150.5,136.8,150.2,136.6,150,136.3z"/>
		<path class="st0" d="M173.1,126.6c0.2,0.1,0.4,0.2,0.5,0.3c0.1,0.1,0.2,0.3,0.1,0.5c0,0.2-0.1,0.3-0.2,0.5
			c-0.1,0.1-0.3,0.2-0.6,0.3l-2.9,0l0,9c0,0.3-0.1,0.5-0.2,0.6c-0.2,0.1-0.3,0.2-0.5,0.2c-0.2,0-0.3-0.1-0.5-0.2
			c-0.1-0.1-0.2-0.3-0.3-0.6l0-9.1l-2.9,0c-0.3,0-0.5-0.1-0.6-0.3c-0.1-0.2-0.2-0.3-0.2-0.5c0-0.2,0.1-0.4,0.2-0.5
			c0.1-0.1,0.4-0.2,0.6-0.2c0.1,0,0.4,0,0.8,0c0.4,0,0.8,0,1.3,0s1,0,1.6,0c0.6,0,1.1,0,1.6,0c0.5,0,0.9,0,1.3,0
			C172.7,126.6,173,126.6,173.1,126.6z"/>
		<path class="st0" d="M199.3,128.7c-0.1-0.2-0.2-0.4-0.4-0.6c-0.2-0.1-0.3-0.2-0.5-0.3c-0.5,0-1,0.1-1.5,0.4
			c-0.4,0.3-0.8,0.6-1.2,1c-0.2,0.1-0.4,0.2-0.6,0.2c-0.2,0-0.4-0.1-0.5-0.2c-0.1-0.1-0.2-0.3-0.2-0.5c0-0.2,0.1-0.4,0.2-0.6
			c0.2-0.2,0.5-0.5,0.8-0.7s0.6-0.5,0.9-0.6c0.3-0.2,0.6-0.3,1-0.4c0.3-0.1,0.7-0.2,1-0.2c0.4,0,0.8,0.1,1.1,0.2
			c0.3,0.2,0.6,0.4,0.9,0.7c0.3,0.3,0.5,0.7,0.6,1.1c0.1,0.4,0.2,0.9,0.2,1.4c0,0.2,0,0.3-0.1,0.5c-0.1,0.6-0.3,1-0.6,1.4
			s-0.6,0.7-0.9,0.9c-0.3,0.3-0.7,0.5-1.1,0.7s-0.7,0.4-1,0.7c-0.3,0.2-0.6,0.5-0.8,0.9c-0.2,0.4-0.4,0.8-0.5,1.3l3.5,0
			c0.1,0,0.3,0,0.3-0.1s0.1-0.1,0.2-0.1c0,0,0.1-0.1,0.2-0.2c0.1-0.1,0.2-0.2,0.2-0.2c0.1,0,0.1-0.1,0.2-0.1c0.1,0,0.2,0,0.2,0
			c0.2,0,0.4,0.1,0.5,0.2c0.1,0.2,0.2,0.3,0.2,0.5c0,0.1,0,0.2,0,0.3c0,0.1-0.1,0.1-0.1,0.1c-0.2,0.3-0.5,0.6-0.8,0.8
			c-0.3,0.2-0.7,0.3-1.1,0.3l-4.4,0c-0.5,0-0.7-0.3-0.8-0.9c0-0.4,0.1-0.8,0.2-1.2c0.1-0.4,0.2-0.8,0.3-1.1c0.1-0.4,0.3-0.7,0.5-1
			c0.2-0.3,0.5-0.6,0.8-0.9c0.3-0.2,0.6-0.4,1-0.6c0.4-0.2,0.7-0.4,1.1-0.7c0.3-0.2,0.6-0.5,0.8-0.8c0.2-0.3,0.3-0.7,0.3-1.2
			c0-0.1,0-0.3-0.1-0.4S199.4,128.7,199.3,128.7z"/>
		<path class="st0" d="M217,133.3c-0.1,0.5-0.3,0.9-0.5,1.5c-0.2,0.5-0.5,1-0.8,1.5c-0.3,0.5-0.7,0.8-1.1,1.2
			c-0.4,0.3-0.9,0.5-1.4,0.6c-0.4,0.1-0.7,0.1-1,0c-0.3,0-0.7-0.1-1-0.3c-0.3-0.1-0.5-0.3-0.8-0.4c-0.2-0.1-0.4-0.3-0.6-0.6
			c-0.3-0.4-0.5-0.8-0.7-1.3c-0.2-0.5-0.3-0.9-0.4-1.4c-0.1-0.5-0.1-1-0.1-1.5c0-0.5,0-1,0.1-1.5c0.1-0.5,0.2-1.1,0.4-1.6
			s0.5-1.1,0.8-1.5s0.7-0.9,1.2-1.2c0.5-0.3,1-0.5,1.6-0.5c0.3,0,0.6,0,0.8,0c0.3,0,0.5,0.1,0.8,0.2c0.3,0.1,0.5,0.3,0.7,0.4
			s0.5,0.3,0.6,0.5c0.4,0.4,0.6,0.8,0.8,1.3c0.2,0.5,0.3,1,0.4,1.5s0.1,1,0.1,1.6S217.1,132.8,217,133.3z M215.5,133.1
			c0-0.4,0.1-0.7,0.1-1.1c0-0.4,0-0.7-0.1-1.1c0-0.3-0.1-0.6-0.2-1c-0.1-0.3-0.2-0.6-0.4-0.9c-0.2-0.3-0.4-0.6-0.7-0.8
			c-0.3-0.2-0.6-0.3-0.9-0.4c-0.3-0.1-0.6,0-1,0.1c-0.3,0.1-0.6,0.3-0.9,0.5c-0.4,0.4-0.7,0.9-1,1.5c-0.2,0.7-0.4,1.4-0.4,2.1
			c-0.1,0.7,0,1.4,0.1,2.1c0.1,0.7,0.4,1.2,0.7,1.6c0.2,0.2,0.4,0.4,0.7,0.5c0.2,0.1,0.5,0.2,0.8,0.2c0.5-0.1,0.9-0.2,1.2-0.4
			c0.3-0.2,0.6-0.4,0.9-0.7c0.2-0.3,0.4-0.6,0.6-1c0.2-0.4,0.3-0.8,0.4-1.2L215.5,133.1z"/>
		<path class="st0" d="M228.8,136.4c0.1,0.1,0.2,0.3,0.2,0.5c0,0.2-0.1,0.3-0.2,0.5c-0.1,0.1-0.3,0.2-0.6,0.3l-2.8,0
			c-0.3,0-0.5-0.1-0.6-0.3c-0.1-0.2-0.2-0.3-0.2-0.5c0-0.2,0.1-0.3,0.2-0.5c0.1-0.2,0.4-0.2,0.6-0.3l0.5,0l0-7.6
			c-0.2,0.1-0.4,0.2-0.6,0.2c-0.2,0-0.4-0.1-0.5-0.2c-0.1-0.1-0.2-0.3-0.2-0.5c0-0.1,0-0.2,0.1-0.4s0.1-0.2,0.3-0.3l1.3-0.8
			c0.2-0.1,0.3-0.1,0.4-0.1c0.4,0,0.6,0.2,0.7,0.6l0,9.1l0.8,0C228.5,136.2,228.7,136.3,228.8,136.4z"/>
		<path class="st0" d="M240.3,137.3c-0.1,0.2-0.2,0.4-0.3,0.5c-0.1,0.1-0.3,0.1-0.4,0.1c-0.2,0-0.3-0.1-0.5-0.2
			c-0.1-0.1-0.2-0.3-0.3-0.6c0.1-0.8,0.2-1.5,0.4-2.4c0.2-0.8,0.5-1.6,0.8-2.4c0.3-0.8,0.7-1.6,1.1-2.3c0.4-0.7,0.8-1.4,1.3-2
			l-5.3,0c-0.3,0-0.5-0.1-0.6-0.3c-0.1-0.1-0.2-0.3-0.2-0.5c0-0.2,0.1-0.4,0.2-0.5c0.1-0.2,0.4-0.2,0.6-0.3l6.9,0
			c0.4,0.1,0.6,0.4,0.6,0.7c0,0.1,0,0.2-0.1,0.4c-0.2,0.2-0.3,0.4-0.5,0.6c-0.2,0.2-0.3,0.4-0.5,0.6c-0.4,0.6-0.8,1.2-1.2,1.9
			s-0.7,1.4-1,2.1c-0.3,0.7-0.5,1.4-0.7,2.2C240.5,135.8,240.4,136.6,240.3,137.3z"/>
	</g>
	<path class="st1" d="M332.9,240c-32.9,18.7-85,30.8-143.7,30.8c-58.7,0-110.8-12.1-143.7-30.8"/>
	<path class="st1" d="M295.4,240c-24.3,9.4-62.8,15.4-106.2,15.4c-43.4,0-81.9-6-106.2-15.4"/>
	<g>
		<path class="st1" d="M217.9,97.2c29.1,2,54.4,6.9,71.8,13.6"/>
		<path class="st1" d="M88.5,110.8c16.3-6.3,39.3-11,65.9-13.2"/>
		<path class="st1" d="M228,83.8c39,3.9,72.9,13.6,96.5,26.8"/>
		<path class="st1" d="M53.9,110.5c23.4-13.1,56.8-22.6,95.2-26.6"/>
		<g>
			<path class="st2" d="M210.5,46c-3.8-0.9-7.5-0.4-10.8,1.2c-0.9-5.1-5.4-9-10.8-9c-5.3,0-9.8,3.8-10.7,8.9c-2-0.9-4.3-1.4-6.6-1.4
				c-8.9,0-16.2,7.3-16.2,16.2c0,8,5.8,14.7,13.5,16l4.3,20.6l1.8,8.5h25l10.7-29.3c5.7-1.4,10.5-5.9,11.9-12
				C224.6,56.8,219.3,48.1,210.5,46z"/>
			<line class="st1" x1="193.3" y1="99.3" x2="171.1" y2="99.3"/>
			<line class="st1" x1="191.5" y1="92.2" x2="169.3" y2="92.2"/>
			<line class="st1" x1="189.1" y1="85.1" x2="166.9" y2="85.1"/>
		</g>
	</g>
</g>
</svg>
